# xmcd CD database file
#
# Track frame offsets:
#	150
#	22726
#	44407
#	70250
#	104139
#	332550
#
# Disc length: 4440 seconds
#
# Revision: 0
# Processed by: cddbd v1.5PL3 Copyright (c) Steve Scherf et al.
# Submitted via: CDex 1.51
#
DISCID=4d115606
DTITLE=Skoop On Somebody - Sing a Song
DYEAR=2003
DGENRE=JPop
TTITLE0=Sing a Song
TTITLE1=wanna, wanna, wanna
TTITLE2=ぼくが地球を救う 〜Sounds Of Spirit〜 (Club SOS Version)
TTITLE3=Sing a Song (Less Vocal)
TTITLE4=Data01
TTITLE5=Data02
EXTD=YEAR: 2003
EXTT0=
EXTT1=
EXTT2=
EXTT3=
EXTT4=
EXTT5=
PLAYORDER=
